<svg width="100%" height="100%" viewBox="0 0 16 16" fill="none" xmlns="http://www.w3.org/2000/svg">
<path d="M6.0385 12.667C5.70172 12.667 5.41667 12.55 5.18333 12.317C4.95 12.083 4.83333 11.798 4.83333 11.462V3.872C4.83333 3.535 4.95 3.25 5.18333 3.017C5.41667 2.783 5.70172 2.667 6.0385 2.667H11.6282C11.9649 2.667 12.25 2.783 12.4833 3.017C12.7167 3.25 12.8333 3.535 12.8333 3.872V11.462C12.8333 11.798 12.7167 12.083 12.4833 12.317C12.25 12.55 11.9649 12.667 11.6282 12.667H6.0385ZM3.70517 15C3.36839 15 3.08333 14.883 2.85 14.65C2.61667 14.417 2.5 14.132 2.5 13.795V5.205H3.5V13.795C3.5 13.846 3.52139 13.893 3.56417 13.936C3.60683 13.979 3.65383 14 3.70517 14H10.2948V15H3.70517Z" fill="currentColor"/>
</svg>
